<svg xmlns="http://www.w3.org/2000/svg" width="1024" height="1024" viewBox="0 0 1024 1024"><defs><linearGradient id="g1" x1="0" y1="0" x2="0" y2="1"><stop offset="0" stop-color="#ebcca2" stop-opacity="1"/><stop offset="1" stop-color="#c7a98b" stop-opacity="1"/></linearGradient><linearGradient id="g2" x1="0" y1="0" x2="0" y2="1"><stop offset="0" stop-color="#b39063" stop-opacity="1"/><stop offset="1" stop-color="#8b705b" stop-opacity="1"/></linearGradient><linearGradient id="g3" x1="0" y1="0" x2="0" y2="1"><stop offset="0" stop-color="#de7943" stop-opacity="1"/><stop offset="1" stop-color="#bb5c31" stop-opacity="1"/></linearGradient><linearGradient id="g4" x1="0" y1="0" x2="0" y2="1"><stop offset="0" stop-color="#a04518" stop-opacity="1"/><stop offset="1" stop-color="#7e3a25" stop-opacity="1"/></linearGradient><linearGradient id="g5" x1="0" y1="0" x2="0" y2="1"><stop offset="0" stop-color="#abcbea" stop-opacity="1"/><stop offset="1" stop-color="#8ca8cd" stop-opacity="1"/></linearGradient><linearGradient id="g6" x1="0" y1="0" x2="0" y2="1"><stop offset="0" stop-color="#6c94c1" stop-opacity="1"/><stop offset="1" stop-color="#58739e" stop-opacity="1"/></linearGradient><linearGradient id="g7" x1="0" y1="0" x2="0" y2="1"><stop offset="0" stop-color="#dbc8b0" stop-opacity="1"/><stop offset="1" stop-color="#baa596" stop-opacity="1"/></linearGradient><linearGradient id="g8" x1="0" y1="0" x2="0" y2="1"><stop offset="0" stop-color="#a48e73" stop-opacity="1"/><stop offset="1" stop-color="#806e66" stop-opacity="1"/></linearGradient><linearGradient id="g9" x1="0" y1="0" x2="1" y2="0"><stop offset="0" stop-color="#24e4fa" stop-opacity="1"/><stop offset="0.3" stop-color="#87f1fc" stop-opacity="1"/><stop offset="0.5" stop-color="#24e4fa" stop-opacity="1"/><stop offset="1" stop-color="#006591" stop-opacity="1"/></linearGradient><linearGradient id="g10" x1="0" y1="0" x2="1" y2="0"><stop offset="0" stop-color="#ffffff" stop-opacity="0"/><stop offset="0.5" stop-color="#ffffff" stop-opacity="0.5"/><stop offset="1" stop-color="#ffffff" stop-opacity="0"/></linearGradient><linearGradient id="g11" x1="0" y1="0" x2="1" y2="0"><stop offset="0" stop-color="#939bff" stop-opacity="1"/><stop offset="0.3" stop-color="#c4c8ff" stop-opacity="1"/><stop offset="0.5" stop-color="#939bff" stop-opacity="1"/><stop offset="1" stop-color="#2323a7" stop-opacity="1"/></linearGradient><linearGradient id="g12" x1="0" y1="0" x2="1" y2="0"><stop offset="0" stop-color="#939bff" stop-opacity="1"/><stop offset="0.3" stop-color="#c4c8ff" stop-opacity="1"/><stop offset="0.5" stop-color="#939bff" stop-opacity="1"/><stop offset="1" stop-color="#2323a7" stop-opacity="1"/></linearGradient><linearGradient id="g13" x1="0" y1="0" x2="1" y2="0"><stop offset="0" stop-color="#939bff" stop-opacity="1"/><stop offset="0.3" stop-color="#c4c8ff" stop-opacity="1"/><stop offset="0.5" stop-color="#939bff" stop-opacity="1"/><stop offset="1" stop-color="#2323a7" stop-opacity="1"/></linearGradient><linearGradient id="g14" x1="0" y1="0" x2="0" y2="1"><stop offset="0" stop-color="#f45c30" stop-opacity="1"/><stop offset="1" stop-color="#d04020" stop-opacity="1"/></linearGradient><linearGradient id="g15" x1="0" y1="0" x2="0" y2="1"><stop offset="0" stop-color="#ad2507" stop-opacity="1"/><stop offset="1" stop-color="#872218" stop-opacity="1"/></linearGradient><linearGradient id="g16" x1="0" y1="0" x2="0" y2="1"><stop offset="0" stop-color="#ffcb8d" stop-opacity="1"/><stop offset="1" stop-color="#e9a968" stop-opacity="1"/></linearGradient><linearGradient id="g17" x1="0" y1="0" x2="0" y2="1"><stop offset="0" stop-color="#dd8232" stop-opacity="1"/><stop offset="1" stop-color="#a96438" stop-opacity="1"/></linearGradient><linearGradient id="g18" x1="0" y1="0" x2="0" y2="1"><stop offset="0" stop-color="#a0dcff" stop-opacity="1"/><stop offset="1" stop-color="#3598fb" stop-opacity="1"/></linearGradient><linearGradient id="g19" x1="0" y1="0" x2="0" y2="1"><stop offset="0" stop-color="#4494f0" stop-opacity="1"/><stop offset="1" stop-color="#0c55b8" stop-opacity="1"/></linearGradient><linearGradient id="g20" x1="0" y1="0" x2="1" y2="0"><stop offset="0" stop-color="#ece5d8" stop-opacity="1"/><stop offset="1" stop-color="#a99f8f" stop-opacity="1"/></linearGradient><linearGradient id="g21" x1="0" y1="0" x2="0" y2="1"><stop offset="0" stop-color="#ffffff" stop-opacity="1"/><stop offset="0.6" stop-color="#d3dbe7" stop-opacity="1"/><stop offset="1" stop-color="#94a2b4" stop-opacity="1"/></linearGradient></defs><g transform="translate(560,1024) scale(1.07) translate(-560,-1024)"><ellipse cx="900.0" cy="606.0" rx="66.0" ry="25.0" fill="#b01101"/><ellipse cx="900.0" cy="598.0" rx="66.0" ry="25.0" fill="#ff2909"/><ellipse cx="900.0" cy="598.0" rx="54.0" ry="19.0" fill="#f7e9cc"/><ellipse cx="900.0" cy="599.0" rx="44.0" ry="15.0" fill="#beb19e"/><ellipse cx="900.0" cy="600.0" rx="34.0" ry="11.0" fill="#67cb2f"/><polygon points="882.0,600.0 900.0,594.0 918.0,600.0 900.0,606.0" fill="#84eb47"/><path d="M844.0,602.0 L844.0,578.0" fill="none" stroke="#d5dbe5" stroke-width="2.5"/><ellipse cx="844.0" cy="577.0" rx="5.0" ry="3.0" fill="#ffffff"/><path d="M881.0,592.0 L881.0,568.0" fill="none" stroke="#d5dbe5" stroke-width="2.5"/><ellipse cx="881.0" cy="567.0" rx="5.0" ry="3.0" fill="#ffffff"/><path d="M918.0,592.0 L918.0,568.0" fill="none" stroke="#d5dbe5" stroke-width="2.5"/><ellipse cx="918.0" cy="567.0" rx="5.0" ry="3.0" fill="#ffffff"/><path d="M955.0,602.0 L955.0,578.0" fill="none" stroke="#d5dbe5" stroke-width="2.5"/><ellipse cx="955.0" cy="577.0" rx="5.0" ry="3.0" fill="#ffffff"/><polygon points="72.0,635.6 120.0,650.0 120.0,430.0 72.0,415.6" fill="url(#g1)"/><polygon points="120.0,650.0 162.0,637.4 162.0,417.4 120.0,430.0" fill="url(#g2)"/><polygon points="120.0,430.0 162.0,417.4 114.0,403.0 72.0,415.6" fill="#f8e6c9"/><polygon points="74.9,628.2 117.1,640.8 117.1,633.0 74.9,620.3" fill="#748caf"/><polygon points="74.9,603.7 117.1,616.4 117.1,608.6 74.9,595.9" fill="#748caf"/><polygon points="74.9,579.3 117.1,591.9 117.1,584.1 74.9,571.4" fill="#748caf"/><polygon points="74.9,554.8 117.1,567.5 117.1,559.7 74.9,547.0" fill="#748caf"/><polygon points="74.9,530.4 117.1,543.0 117.1,535.2 74.9,522.6" fill="#748caf"/><polygon points="74.9,505.9 117.1,518.6 117.1,510.8 74.9,498.1" fill="#748caf"/><polygon points="74.9,481.5 117.1,494.2 117.1,486.3 74.9,473.7" fill="#748caf"/><polygon points="74.9,457.0 117.1,469.7 117.1,461.9 74.9,449.2" fill="#748caf"/><polygon points="74.9,432.6 117.1,445.3 117.1,437.4 74.9,424.8" fill="#748caf"/><polygon points="122.5,640.9 159.5,629.8 159.5,622.0 122.5,633.1" fill="#53698f"/><polygon points="122.5,616.5 159.5,605.4 159.5,597.6 122.5,608.7" fill="#53698f"/><polygon points="122.5,592.0 159.5,581.0 159.5,573.1 122.5,584.2" fill="#53698f"/><polygon points="122.5,567.6 159.5,556.5 159.5,548.7 122.5,559.8" fill="#53698f"/><polygon points="122.5,543.2 159.5,532.1 159.5,524.2 122.5,535.3" fill="#53698f"/><polygon points="122.5,518.7 159.5,507.6 159.5,499.8 122.5,510.9" fill="#53698f"/><polygon points="122.5,494.3 159.5,483.2 159.5,475.4 122.5,486.4" fill="#53698f"/><polygon points="122.5,469.8 159.5,458.7 159.5,450.9 122.5,462.0" fill="#53698f"/><polygon points="122.5,445.4 159.5,434.3 159.5,426.5 122.5,437.6" fill="#53698f"/><polygon points="106.1,419.5 116.1,422.5 116.1,413.5 106.1,410.5" fill="#c6ccd7"/><polygon points="116.1,422.5 126.1,419.5 126.1,410.5 116.1,413.5" fill="#8b9096"/><polygon points="116.1,413.5 126.1,410.5 116.1,407.5 106.1,410.5" fill="#d7dbe3"/><path d="M120.6,412.5 L120.6,378.5" fill="none" stroke="#d5dbe5" stroke-width="3"/><ellipse cx="120.6" cy="378.5" rx="4.0" ry="4.0" fill="#ff3a30"/><polygon points="801.0,549.8 835.0,560.0 835.0,290.0 801.0,279.8" fill="url(#g3)"/><polygon points="835.0,560.0 875.0,548.0 875.0,278.0 835.0,290.0" fill="url(#g4)"/><polygon points="835.0,290.0 875.0,278.0 841.0,267.8 801.0,279.8" fill="#f39a5c"/><polygon points="803.0,542.1 833.0,551.0 833.0,543.2 803.0,534.2" fill="#748caf"/><polygon points="803.0,517.5 833.0,526.5 833.0,518.6 803.0,509.7" fill="#748caf"/><polygon points="803.0,493.0 833.0,502.0 833.0,494.1 803.0,485.1" fill="#748caf"/><polygon points="803.0,468.4 833.0,477.4 833.0,469.6 803.0,460.6" fill="#748caf"/><polygon points="803.0,443.9 833.0,452.9 833.0,445.0 803.0,436.0" fill="#748caf"/><polygon points="803.0,419.3 833.0,428.3 833.0,420.5 803.0,411.5" fill="#748caf"/><polygon points="803.0,394.8 833.0,403.8 833.0,395.9 803.0,386.9" fill="#748caf"/><polygon points="803.0,370.2 833.0,379.2 833.0,371.4 803.0,362.4" fill="#748caf"/><polygon points="803.0,345.7 833.0,354.7 833.0,346.8 803.0,337.8" fill="#748caf"/><polygon points="803.0,321.2 833.0,330.1 833.0,322.3 803.0,313.3" fill="#748caf"/><polygon points="803.0,296.6 833.0,305.6 833.0,297.7 803.0,288.8" fill="#748caf"/><polygon points="837.4,550.9 872.6,540.4 872.6,532.5 837.4,543.1" fill="#53698f"/><polygon points="837.4,526.4 872.6,515.8 872.6,508.0 837.4,518.5" fill="#53698f"/><polygon points="837.4,501.8 872.6,491.3 872.6,483.4 837.4,494.0" fill="#53698f"/><polygon points="837.4,477.3 872.6,466.7 872.6,458.9 837.4,469.4" fill="#53698f"/><polygon points="837.4,452.8 872.6,442.2 872.6,434.3 837.4,444.9" fill="#53698f"/><polygon points="837.4,428.2 872.6,417.6 872.6,409.8 837.4,420.4" fill="#53698f"/><polygon points="837.4,403.7 872.6,393.1 872.6,385.2 837.4,395.8" fill="#53698f"/><polygon points="837.4,379.1 872.6,368.6 872.6,360.7 837.4,371.3" fill="#53698f"/><polygon points="837.4,354.6 872.6,344.0 872.6,336.2 837.4,346.7" fill="#53698f"/><polygon points="837.4,330.0 872.6,319.5 872.6,311.6 837.4,322.2" fill="#53698f"/><polygon points="837.4,305.5 872.6,294.9 872.6,287.1 837.4,297.6" fill="#53698f"/><polygon points="824.8,280.9 834.8,283.9 834.8,274.9 824.8,271.9" fill="#c6ccd7"/><polygon points="834.8,283.9 844.8,280.9 844.8,271.9 834.8,274.9" fill="#8b9096"/><polygon points="834.8,274.9 844.8,271.9 834.8,268.9 824.8,271.9" fill="#d7dbe3"/><path d="M842.6,275.5 L842.6,241.5" fill="none" stroke="#d5dbe5" stroke-width="3"/><ellipse cx="842.6" cy="241.5" rx="4.0" ry="4.0" fill="#ff3a30"/><polygon points="512.0,589.2 548.0,600.0 548.0,300.0 512.0,289.2" fill="url(#g5)"/><polygon points="548.0,600.0 586.0,588.6 586.0,288.6 548.0,300.0" fill="url(#g6)"/><polygon points="548.0,300.0 586.0,288.6 550.0,277.8 512.0,289.2" fill="#ddebf9"/><polygon points="514.2,581.3 545.8,590.9 545.8,582.9 514.2,573.3" fill="#748caf"/><polygon points="514.2,556.3 545.8,565.9 545.8,557.9 514.2,548.3" fill="#748caf"/><polygon points="514.2,531.3 545.8,540.9 545.8,532.9 514.2,523.3" fill="#748caf"/><polygon points="514.2,506.3 545.8,515.9 545.8,507.9 514.2,498.3" fill="#748caf"/><polygon points="514.2,481.3 545.8,490.9 545.8,482.9 514.2,473.3" fill="#748caf"/><polygon points="514.2,456.3 545.8,465.9 545.8,457.9 514.2,448.3" fill="#748caf"/><polygon points="514.2,431.3 545.8,440.9 545.8,432.9 514.2,423.3" fill="#748caf"/><polygon points="514.2,406.3 545.8,415.9 545.8,407.9 514.2,398.3" fill="#748caf"/><polygon points="514.2,381.3 545.8,390.9 545.8,382.9 514.2,373.3" fill="#748caf"/><polygon points="514.2,356.3 545.8,365.9 545.8,357.9 514.2,348.3" fill="#748caf"/><polygon points="514.2,331.3 545.8,340.9 545.8,332.9 514.2,323.3" fill="#748caf"/><polygon points="514.2,306.3 545.8,315.9 545.8,307.9 514.2,298.3" fill="#748caf"/><polygon points="550.3,590.8 583.7,580.8 583.7,572.8 550.3,582.8" fill="#53698f"/><polygon points="550.3,565.8 583.7,555.8 583.7,547.8 550.3,557.8" fill="#53698f"/><polygon points="550.3,540.8 583.7,530.8 583.7,522.8 550.3,532.8" fill="#53698f"/><polygon points="550.3,515.8 583.7,505.8 583.7,497.8 550.3,507.8" fill="#53698f"/><polygon points="550.3,490.8 583.7,480.8 583.7,472.8 550.3,482.8" fill="#53698f"/><polygon points="550.3,465.8 583.7,455.8 583.7,447.8 550.3,457.8" fill="#53698f"/><polygon points="550.3,440.8 583.7,430.8 583.7,422.8 550.3,432.8" fill="#53698f"/><polygon points="550.3,415.8 583.7,405.8 583.7,397.8 550.3,407.8" fill="#53698f"/><polygon points="550.3,390.8 583.7,380.8 583.7,372.8 550.3,382.8" fill="#53698f"/><polygon points="550.3,365.8 583.7,355.8 583.7,347.8 550.3,357.8" fill="#53698f"/><polygon points="550.3,340.8 583.7,330.8 583.7,322.8 550.3,332.8" fill="#53698f"/><polygon points="550.3,315.8 583.7,305.8 583.7,297.8 550.3,307.8" fill="#53698f"/><polygon points="536.7,290.9 546.7,293.9 546.7,284.9 536.7,281.9" fill="#c6ccd7"/><polygon points="546.7,293.9 556.7,290.9 556.7,281.9 546.7,284.9" fill="#8b9096"/><polygon points="546.7,284.9 556.7,281.9 546.7,278.9 536.7,281.9" fill="#d7dbe3"/><path d="M553.0,285.5 L553.0,251.5" fill="none" stroke="#d5dbe5" stroke-width="3"/><ellipse cx="553.0" cy="251.5" rx="4.0" ry="4.0" fill="#ff3a30"/><polygon points="390.0,581.0 420.0,590.0 420.0,380.0 390.0,371.0" fill="url(#g7)"/><polygon points="420.0,590.0 450.0,581.0 450.0,371.0 420.0,380.0" fill="url(#g8)"/><polygon points="420.0,380.0 450.0,371.0 420.0,362.0 390.0,371.0" fill="#f8e8d0"/><polygon points="391.8,572.6 418.2,580.5 418.2,572.1 391.8,564.2" fill="#748caf"/><polygon points="391.8,546.4 418.2,554.3 418.2,545.9 391.8,538.0" fill="#748caf"/><polygon points="391.8,520.1 418.2,528.0 418.2,519.6 391.8,511.7" fill="#748caf"/><polygon points="391.8,493.9 418.2,501.8 418.2,493.4 391.8,485.5" fill="#748caf"/><polygon points="391.8,467.6 418.2,475.5 418.2,467.1 391.8,459.2" fill="#748caf"/><polygon points="391.8,441.4 418.2,449.3 418.2,440.9 391.8,433.0" fill="#748caf"/><polygon points="391.8,415.1 418.2,423.0 418.2,414.6 391.8,406.7" fill="#748caf"/><polygon points="391.8,388.9 418.2,396.8 418.2,388.4 391.8,380.5" fill="#748caf"/><polygon points="421.8,580.5 448.2,572.6 448.2,564.2 421.8,572.1" fill="#53698f"/><polygon points="421.8,554.3 448.2,546.4 448.2,538.0 421.8,545.9" fill="#53698f"/><polygon points="421.8,528.0 448.2,520.1 448.2,511.7 421.8,519.6" fill="#53698f"/><polygon points="421.8,501.8 448.2,493.9 448.2,485.5 421.8,493.4" fill="#53698f"/><polygon points="421.8,475.5 448.2,467.6 448.2,459.2 421.8,467.1" fill="#53698f"/><polygon points="421.8,449.3 448.2,441.4 448.2,433.0 421.8,440.9" fill="#53698f"/><polygon points="421.8,423.0 448.2,415.1 448.2,406.7 421.8,414.6" fill="#53698f"/><polygon points="421.8,396.8 448.2,388.9 448.2,380.5 421.8,388.4" fill="#53698f"/><polygon points="408.5,372.1 418.5,375.1 418.5,366.1 408.5,363.1" fill="#c6ccd7"/><polygon points="418.5,375.1 428.5,372.1 428.5,363.1 418.5,366.1" fill="#8b9096"/><polygon points="418.5,366.1 428.5,363.1 418.5,360.1 408.5,363.1" fill="#d7dbe3"/><path d="M423.0,368.3 L423.0,334.3" fill="none" stroke="#d5dbe5" stroke-width="3"/><ellipse cx="423.0" cy="334.3" rx="4.0" ry="4.0" fill="#ff3a30"/><path d="M200.0,770.0 L200.0,294.0 A72.0,72.0 0 0 1 344.0,294.0 L344.0,770.0 A72.0,21.6 0 0 1 200.0,770.0 Z" fill="url(#g9)"/><path d="M200.0,312.0 A72.0,21.6 0 0 0 344.0,312.0" fill="none" stroke="#005174" stroke-width="3" opacity="0.35"/><path d="M200.0,343.9 A72.0,21.6 0 0 0 344.0,343.9" fill="none" stroke="#005174" stroke-width="3" opacity="0.35"/><path d="M200.0,375.7 A72.0,21.6 0 0 0 344.0,375.7" fill="none" stroke="#005174" stroke-width="3" opacity="0.35"/><path d="M200.0,407.6 A72.0,21.6 0 0 0 344.0,407.6" fill="none" stroke="#005174" stroke-width="3" opacity="0.35"/><path d="M200.0,439.4 A72.0,21.6 0 0 0 344.0,439.4" fill="none" stroke="#005174" stroke-width="3" opacity="0.35"/><path d="M200.0,471.3 A72.0,21.6 0 0 0 344.0,471.3" fill="none" stroke="#005174" stroke-width="3" opacity="0.35"/><path d="M200.0,503.1 A72.0,21.6 0 0 0 344.0,503.1" fill="none" stroke="#005174" stroke-width="3" opacity="0.35"/><path d="M200.0,535.0 A72.0,21.6 0 0 0 344.0,535.0" fill="none" stroke="#005174" stroke-width="3" opacity="0.35"/><path d="M200.0,566.9 A72.0,21.6 0 0 0 344.0,566.9" fill="none" stroke="#005174" stroke-width="3" opacity="0.35"/><path d="M200.0,598.7 A72.0,21.6 0 0 0 344.0,598.7" fill="none" stroke="#005174" stroke-width="3" opacity="0.35"/><path d="M200.0,630.6 A72.0,21.6 0 0 0 344.0,630.6" fill="none" stroke="#005174" stroke-width="3" opacity="0.35"/><path d="M200.0,662.4 A72.0,21.6 0 0 0 344.0,662.4" fill="none" stroke="#005174" stroke-width="3" opacity="0.35"/><path d="M200.0,694.3 A72.0,21.6 0 0 0 344.0,694.3" fill="none" stroke="#005174" stroke-width="3" opacity="0.35"/><path d="M200.0,726.1 A72.0,21.6 0 0 0 344.0,726.1" fill="none" stroke="#005174" stroke-width="3" opacity="0.35"/><path d="M200.0,758.0 A72.0,21.6 0 0 0 344.0,758.0" fill="none" stroke="#005174" stroke-width="3" opacity="0.35"/><path d="M222,300 L222,756 L240,762 L240,292 Z" fill="url(#g10)" opacity="0.7"/><path d="M272.0,224.0 L272.0,164.0" fill="none" stroke="#d5dbe5" stroke-width="3"/><ellipse cx="272.0" cy="164.0" rx="4.0" ry="4.0" fill="#ff3a30"/><path d="M574.0,712.0 L574.0,376.0 A38.0,38.0 0 0 1 650.0,376.0 L650.0,712.0 A38.0,11.4 0 0 1 574.0,712.0 Z" fill="url(#g11)"/><path d="M574.0,394.0 A38.0,11.4 0 0 0 650.0,394.0" fill="none" stroke="#1c1c86" stroke-width="3" opacity="0.35"/><path d="M574.0,432.2 A38.0,11.4 0 0 0 650.0,432.2" fill="none" stroke="#1c1c86" stroke-width="3" opacity="0.35"/><path d="M574.0,470.5 A38.0,11.4 0 0 0 650.0,470.5" fill="none" stroke="#1c1c86" stroke-width="3" opacity="0.35"/><path d="M574.0,508.8 A38.0,11.4 0 0 0 650.0,508.8" fill="none" stroke="#1c1c86" stroke-width="3" opacity="0.35"/><path d="M574.0,547.0 A38.0,11.4 0 0 0 650.0,547.0" fill="none" stroke="#1c1c86" stroke-width="3" opacity="0.35"/><path d="M574.0,585.2 A38.0,11.4 0 0 0 650.0,585.2" fill="none" stroke="#1c1c86" stroke-width="3" opacity="0.35"/><path d="M574.0,623.5 A38.0,11.4 0 0 0 650.0,623.5" fill="none" stroke="#1c1c86" stroke-width="3" opacity="0.35"/><path d="M574.0,661.8 A38.0,11.4 0 0 0 650.0,661.8" fill="none" stroke="#1c1c86" stroke-width="3" opacity="0.35"/><path d="M574.0,700.0 A38.0,11.4 0 0 0 650.0,700.0" fill="none" stroke="#1c1c86" stroke-width="3" opacity="0.35"/><path d="M648.0,700.0 L648.0,396.0 A38.0,38.0 0 0 1 724.0,396.0 L724.0,700.0 A38.0,11.4 0 0 1 648.0,700.0 Z" fill="url(#g12)"/><path d="M648.0,414.0 A38.0,11.4 0 0 0 724.0,414.0" fill="none" stroke="#1c1c86" stroke-width="3" opacity="0.35"/><path d="M648.0,448.2 A38.0,11.4 0 0 0 724.0,448.2" fill="none" stroke="#1c1c86" stroke-width="3" opacity="0.35"/><path d="M648.0,482.5 A38.0,11.4 0 0 0 724.0,482.5" fill="none" stroke="#1c1c86" stroke-width="3" opacity="0.35"/><path d="M648.0,516.8 A38.0,11.4 0 0 0 724.0,516.8" fill="none" stroke="#1c1c86" stroke-width="3" opacity="0.35"/><path d="M648.0,551.0 A38.0,11.4 0 0 0 724.0,551.0" fill="none" stroke="#1c1c86" stroke-width="3" opacity="0.35"/><path d="M648.0,585.2 A38.0,11.4 0 0 0 724.0,585.2" fill="none" stroke="#1c1c86" stroke-width="3" opacity="0.35"/><path d="M648.0,619.5 A38.0,11.4 0 0 0 724.0,619.5" fill="none" stroke="#1c1c86" stroke-width="3" opacity="0.35"/><path d="M648.0,653.8 A38.0,11.4 0 0 0 724.0,653.8" fill="none" stroke="#1c1c86" stroke-width="3" opacity="0.35"/><path d="M648.0,688.0 A38.0,11.4 0 0 0 724.0,688.0" fill="none" stroke="#1c1c86" stroke-width="3" opacity="0.35"/><path d="M718.0,690.0 L718.0,422.0 A38.0,38.0 0 0 1 794.0,422.0 L794.0,690.0 A38.0,11.4 0 0 1 718.0,690.0 Z" fill="url(#g13)"/><path d="M718.0,440.0 A38.0,11.4 0 0 0 794.0,440.0" fill="none" stroke="#1c1c86" stroke-width="3" opacity="0.35"/><path d="M718.0,469.8 A38.0,11.4 0 0 0 794.0,469.8" fill="none" stroke="#1c1c86" stroke-width="3" opacity="0.35"/><path d="M718.0,499.5 A38.0,11.4 0 0 0 794.0,499.5" fill="none" stroke="#1c1c86" stroke-width="3" opacity="0.35"/><path d="M718.0,529.2 A38.0,11.4 0 0 0 794.0,529.2" fill="none" stroke="#1c1c86" stroke-width="3" opacity="0.35"/><path d="M718.0,559.0 A38.0,11.4 0 0 0 794.0,559.0" fill="none" stroke="#1c1c86" stroke-width="3" opacity="0.35"/><path d="M718.0,588.8 A38.0,11.4 0 0 0 794.0,588.8" fill="none" stroke="#1c1c86" stroke-width="3" opacity="0.35"/><path d="M718.0,618.5 A38.0,11.4 0 0 0 794.0,618.5" fill="none" stroke="#1c1c86" stroke-width="3" opacity="0.35"/><path d="M718.0,648.2 A38.0,11.4 0 0 0 794.0,648.2" fill="none" stroke="#1c1c86" stroke-width="3" opacity="0.35"/><path d="M718.0,678.0 A38.0,11.4 0 0 0 794.0,678.0" fill="none" stroke="#1c1c86" stroke-width="3" opacity="0.35"/><polygon points="684.0,755.2 740.0,772.0 740.0,622.0 684.0,605.2" fill="url(#g14)"/><polygon points="740.0,772.0 814.0,749.8 814.0,599.8 740.0,622.0" fill="url(#g15)"/><polygon points="740.0,622.0 814.0,599.8 758.0,583.0 684.0,605.2" fill="#ff7a49"/><polygon points="687.4,748.1 736.6,762.9 736.6,754.1 687.4,739.3" fill="#6e1704"/><polygon points="687.4,723.1 736.6,737.9 736.6,729.1 687.4,714.3" fill="#6e1704"/><polygon points="687.4,698.1 736.6,712.9 736.6,704.1 687.4,689.3" fill="#6e1704"/><polygon points="687.4,673.1 736.6,687.9 736.6,679.1 687.4,664.3" fill="#6e1704"/><polygon points="687.4,648.1 736.6,662.9 736.6,654.1 687.4,639.3" fill="#6e1704"/><polygon points="687.4,623.1 736.6,637.9 736.6,629.1 687.4,614.3" fill="#6e1704"/><polygon points="744.4,762.5 809.6,743.0 809.6,734.3 744.4,753.8" fill="#5b1101"/><polygon points="744.4,737.5 809.6,718.0 809.6,709.3 744.4,728.8" fill="#5b1101"/><polygon points="744.4,712.5 809.6,693.0 809.6,684.3 744.4,703.8" fill="#5b1101"/><polygon points="744.4,687.5 809.6,668.0 809.6,659.3 744.4,678.8" fill="#5b1101"/><polygon points="744.4,662.5 809.6,643.0 809.6,634.3 744.4,653.8" fill="#5b1101"/><polygon points="744.4,637.5 809.6,618.0 809.6,609.3 744.4,628.8" fill="#5b1101"/><ellipse cx="752.7" cy="601.4" rx="22.0" ry="8.0" fill="#565d6a"/><ellipse cx="752.7" cy="601.4" rx="15.0" ry="5.0" fill="none" stroke="#f4f4f4" stroke-width="2"/><polygon points="731.5,614.1 740.5,616.8 740.5,609.8 731.5,607.1" fill="#c6ccd7"/><polygon points="740.5,616.8 749.5,614.1 749.5,607.1 740.5,609.8" fill="#8b9096"/><polygon points="740.5,609.8 749.5,607.1 740.5,604.4 731.5,607.1" fill="#d7dbe3"/><polygon points="350.0,887.4 492.0,930.0 492.0,430.0 350.0,387.4" fill="url(#g16)"/><polygon points="492.0,930.0 616.0,892.8 616.0,392.8 492.0,430.0" fill="url(#g17)"/><polygon points="492.0,430.0 616.0,392.8 474.0,350.2 350.0,387.4" fill="#ffd89d"/><polygon points="364.3,865.6 371.2,867.6 371.2,852.1 364.3,850.0" fill="#b66825"/><polygon points="379.9,870.3 386.8,872.3 386.8,856.8 379.9,854.7" fill="#b66825"/><polygon points="395.6,875.0 402.4,877.0 402.4,861.5 395.6,859.4" fill="#b66825"/><polygon points="364.3,837.8 371.2,839.9 371.2,824.3 364.3,822.2" fill="#b66825"/><polygon points="379.9,842.5 386.8,844.6 386.8,829.0 379.9,826.9" fill="#b66825"/><polygon points="395.6,847.2 402.4,849.2 402.4,833.7 395.6,831.6" fill="#b66825"/><polygon points="364.3,810.0 371.2,812.1 371.2,796.5 364.3,794.5" fill="#b66825"/><polygon points="379.9,814.7 386.8,816.8 386.8,801.2 379.9,799.2" fill="#b66825"/><polygon points="395.6,819.4 402.4,821.5 402.4,805.9 395.6,803.8" fill="#b66825"/><polygon points="364.3,782.2 371.2,784.3 371.2,768.8 364.3,766.7" fill="#b66825"/><polygon points="379.9,786.9 386.8,789.0 386.8,773.4 379.9,771.4" fill="#b66825"/><polygon points="395.6,791.6 402.4,793.7 402.4,778.1 395.6,776.1" fill="#b66825"/><polygon points="364.3,754.5 371.2,756.5 371.2,741.0 364.3,738.9" fill="#b66825"/><polygon points="379.9,759.2 386.8,761.2 386.8,745.7 379.9,743.6" fill="#b66825"/><polygon points="395.6,763.8 402.4,765.9 402.4,750.4 395.6,748.3" fill="#b66825"/><polygon points="364.3,726.7 371.2,728.8 371.2,713.2 364.3,711.1" fill="#b66825"/><polygon points="379.9,731.4 386.8,733.4 386.8,717.9 379.9,715.8" fill="#b66825"/><polygon points="395.6,736.1 402.4,738.1 402.4,722.6 395.6,720.5" fill="#b66825"/><polygon points="364.3,698.9 371.2,701.0 371.2,685.4 364.3,683.4" fill="#b66825"/><polygon points="379.9,703.6 386.8,705.7 386.8,690.1 379.9,688.0" fill="#b66825"/><polygon points="395.6,708.3 402.4,710.4 402.4,694.8 395.6,692.7" fill="#b66825"/><polygon points="364.3,671.1 371.2,673.2 371.2,657.6 364.3,655.6" fill="#b66825"/><polygon points="379.9,675.8 386.8,677.9 386.8,662.3 379.9,660.3" fill="#b66825"/><polygon points="395.6,680.5 402.4,682.6 402.4,667.0 395.6,665.0" fill="#b66825"/><polygon points="364.3,643.4 371.2,645.4 371.2,629.9 364.3,627.8" fill="#b66825"/><polygon points="379.9,648.0 386.8,650.1 386.8,634.6 379.9,632.5" fill="#b66825"/><polygon points="395.6,652.7 402.4,654.8 402.4,639.2 395.6,637.2" fill="#b66825"/><polygon points="364.3,535.8 371.2,537.8 371.2,522.7 364.3,520.6" fill="#b66825"/><polygon points="379.9,540.4 386.8,542.5 386.8,527.4 379.9,525.3" fill="#b66825"/><polygon points="395.6,545.1 402.4,547.2 402.4,532.1 395.6,530.0" fill="#b66825"/><polygon points="364.3,508.8 371.2,510.8 371.2,495.7 364.3,493.6" fill="#b66825"/><polygon points="379.9,513.4 386.8,515.5 386.8,500.4 379.9,498.3" fill="#b66825"/><polygon points="395.6,518.1 402.4,520.2 402.4,505.1 395.6,503.0" fill="#b66825"/><polygon points="364.3,481.8 371.2,483.8 371.2,468.7 364.3,466.6" fill="#b66825"/><polygon points="379.9,486.4 386.8,488.5 386.8,473.4 379.9,471.3" fill="#b66825"/><polygon points="395.6,491.1 402.4,493.2 402.4,478.1 395.6,476.0" fill="#b66825"/><polygon points="364.3,454.8 371.2,456.8 371.2,441.7 364.3,439.6" fill="#b66825"/><polygon points="379.9,459.4 386.8,461.5 386.8,446.4 379.9,444.3" fill="#b66825"/><polygon points="395.6,464.1 402.4,466.2 402.4,451.1 395.6,449.0" fill="#b66825"/><polygon points="364.3,427.8 371.2,429.8 371.2,414.7 364.3,412.6" fill="#b66825"/><polygon points="379.9,432.4 386.8,434.5 386.8,419.4 379.9,417.3" fill="#b66825"/><polygon points="395.6,437.1 402.4,439.2 402.4,424.1 395.6,422.0" fill="#b66825"/><polygon points="439.6,888.2 446.4,890.2 446.4,874.7 439.6,872.6" fill="#b66825"/><polygon points="455.2,892.8 462.1,894.9 462.1,879.4 455.2,877.3" fill="#b66825"/><polygon points="470.8,897.5 477.7,899.6 477.7,884.0 470.8,882.0" fill="#b66825"/><polygon points="439.6,860.4 446.4,862.4 446.4,846.9 439.6,844.8" fill="#b66825"/><polygon points="455.2,865.1 462.1,867.1 462.1,851.6 455.2,849.5" fill="#b66825"/><polygon points="470.8,869.8 477.7,871.8 477.7,856.3 470.8,854.2" fill="#b66825"/><polygon points="439.6,832.6 446.4,834.7 446.4,819.1 439.6,817.0" fill="#b66825"/><polygon points="455.2,837.3 462.1,839.4 462.1,823.8 455.2,821.7" fill="#b66825"/><polygon points="470.8,842.0 477.7,844.0 477.7,828.5 470.8,826.4" fill="#b66825"/><polygon points="439.6,804.8 446.4,806.9 446.4,791.3 439.6,789.3" fill="#b66825"/><polygon points="455.2,809.5 462.1,811.6 462.1,796.0 455.2,794.0" fill="#b66825"/><polygon points="470.8,814.2 477.7,816.3 477.7,800.7 470.8,798.6" fill="#b66825"/><polygon points="439.6,777.0 446.4,779.1 446.4,763.6 439.6,761.5" fill="#b66825"/><polygon points="455.2,781.7 462.1,783.8 462.1,768.2 455.2,766.2" fill="#b66825"/><polygon points="470.8,786.4 477.7,788.5 477.7,772.9 470.8,770.9" fill="#b66825"/><polygon points="439.6,749.3 446.4,751.3 446.4,735.8 439.6,733.7" fill="#b66825"/><polygon points="455.2,754.0 462.1,756.0 462.1,740.5 455.2,738.4" fill="#b66825"/><polygon points="470.8,758.6 477.7,760.7 477.7,745.2 470.8,743.1" fill="#b66825"/><polygon points="439.6,721.5 446.4,723.6 446.4,708.0 439.6,705.9" fill="#b66825"/><polygon points="455.2,726.2 462.1,728.2 462.1,712.7 455.2,710.6" fill="#b66825"/><polygon points="470.8,730.9 477.7,732.9 477.7,717.4 470.8,715.3" fill="#b66825"/><polygon points="439.6,693.7 446.4,695.8 446.4,680.2 439.6,678.2" fill="#b66825"/><polygon points="455.2,698.4 462.1,700.5 462.1,684.9 455.2,682.8" fill="#b66825"/><polygon points="470.8,703.1 477.7,705.2 477.7,689.6 470.8,687.5" fill="#b66825"/><polygon points="439.6,665.9 446.4,668.0 446.4,652.4 439.6,650.4" fill="#b66825"/><polygon points="455.2,670.6 462.1,672.7 462.1,657.1 455.2,655.1" fill="#b66825"/><polygon points="470.8,675.3 477.7,677.4 477.7,661.8 470.8,659.8" fill="#b66825"/><polygon points="439.6,558.3 446.4,560.4 446.4,545.3 439.6,543.2" fill="#b66825"/><polygon points="455.2,563.0 462.1,565.1 462.1,550.0 455.2,547.9" fill="#b66825"/><polygon points="470.8,567.7 477.7,569.8 477.7,554.6 470.8,552.6" fill="#b66825"/><polygon points="439.6,531.3 446.4,533.4 446.4,518.3 439.6,516.2" fill="#b66825"/><polygon points="455.2,536.0 462.1,538.1 462.1,523.0 455.2,520.9" fill="#b66825"/><polygon points="470.8,540.7 477.7,542.8 477.7,527.6 470.8,525.6" fill="#b66825"/><polygon points="439.6,504.3 446.4,506.4 446.4,491.3 439.6,489.2" fill="#b66825"/><polygon points="455.2,509.0 462.1,511.1 462.1,496.0 455.2,493.9" fill="#b66825"/><polygon points="470.8,513.7 477.7,515.8 477.7,500.6 470.8,498.6" fill="#b66825"/><polygon points="439.6,477.3 446.4,479.4 446.4,464.3 439.6,462.2" fill="#b66825"/><polygon points="455.2,482.0 462.1,484.1 462.1,469.0 455.2,466.9" fill="#b66825"/><polygon points="470.8,486.7 477.7,488.8 477.7,473.6 470.8,471.6" fill="#b66825"/><polygon points="439.6,450.3 446.4,452.4 446.4,437.3 439.6,435.2" fill="#b66825"/><polygon points="455.2,455.0 462.1,457.1 462.1,442.0 455.2,439.9" fill="#b66825"/><polygon points="470.8,459.7 477.7,461.8 477.7,446.6 470.8,444.6" fill="#b66825"/><polygon points="411.1,905.7 430.9,911.7 430.9,411.7 411.1,405.7" fill="url(#g18)"/><polygon points="350.0,597.4 492.0,640.0 492.0,600.0 350.0,557.4" fill="url(#g18)"/><polygon points="406.8,904.4 435.2,913.0 435.2,888.0 406.8,879.4" fill="#2d4673"/><polygon points="504.5,900.1 510.5,898.3 510.5,882.8 504.5,884.6" fill="#874412"/><polygon points="518.1,896.0 524.1,894.2 524.1,878.7 518.1,880.5" fill="#874412"/><polygon points="531.8,892.0 537.8,890.2 537.8,874.6 531.8,876.4" fill="#874412"/><polygon points="504.5,872.4 510.5,870.6 510.5,855.0 504.5,856.8" fill="#874412"/><polygon points="518.1,868.3 524.1,866.5 524.1,850.9 518.1,852.7" fill="#874412"/><polygon points="531.8,864.2 537.8,862.4 537.8,846.8 531.8,848.6" fill="#874412"/><polygon points="504.5,844.6 510.5,842.8 510.5,827.2 504.5,829.0" fill="#874412"/><polygon points="518.1,840.5 524.1,838.7 524.1,823.1 518.1,824.9" fill="#874412"/><polygon points="531.8,836.4 537.8,834.6 537.8,819.0 531.8,820.8" fill="#874412"/><polygon points="504.5,816.8 510.5,815.0 510.5,799.4 504.5,801.3" fill="#874412"/><polygon points="518.1,812.7 524.1,810.9 524.1,795.4 518.1,797.2" fill="#874412"/><polygon points="531.8,808.6 537.8,806.8 537.8,791.3 531.8,793.1" fill="#874412"/><polygon points="504.5,789.0 510.5,787.2 510.5,771.7 504.5,773.5" fill="#874412"/><polygon points="518.1,784.9 524.1,783.1 524.1,767.6 518.1,769.4" fill="#874412"/><polygon points="531.8,780.8 537.8,779.0 537.8,763.5 531.8,765.3" fill="#874412"/><polygon points="504.5,761.3 510.5,759.4 510.5,743.9 504.5,745.7" fill="#874412"/><polygon points="518.1,757.2 524.1,755.4 524.1,739.8 518.1,741.6" fill="#874412"/><polygon points="531.8,753.1 537.8,751.3 537.8,735.7 531.8,737.5" fill="#874412"/><polygon points="504.5,733.5 510.5,731.7 510.5,716.1 504.5,717.9" fill="#874412"/><polygon points="518.1,729.4 524.1,727.6 524.1,712.0 518.1,713.8" fill="#874412"/><polygon points="531.8,725.3 537.8,723.5 537.8,707.9 531.8,709.7" fill="#874412"/><polygon points="504.5,705.7 510.5,703.9 510.5,688.3 504.5,690.1" fill="#874412"/><polygon points="518.1,701.6 524.1,699.8 524.1,684.2 518.1,686.0" fill="#874412"/><polygon points="531.8,697.5 537.8,695.7 537.8,680.2 531.8,682.0" fill="#874412"/><polygon points="504.5,677.9 510.5,676.1 510.5,660.6 504.5,662.4" fill="#874412"/><polygon points="518.1,673.8 524.1,672.0 524.1,656.5 518.1,658.3" fill="#874412"/><polygon points="531.8,669.7 537.8,667.9 537.8,652.4 531.8,654.2" fill="#874412"/><polygon points="504.5,570.3 510.5,568.5 510.5,553.4 504.5,555.2" fill="#874412"/><polygon points="518.1,566.2 524.1,564.4 524.1,549.3 518.1,551.1" fill="#874412"/><polygon points="531.8,562.1 537.8,560.3 537.8,545.2 531.8,547.0" fill="#874412"/><polygon points="504.5,543.3 510.5,541.5 510.5,526.4 504.5,528.2" fill="#874412"/><polygon points="518.1,539.2 524.1,537.4 524.1,522.3 518.1,524.1" fill="#874412"/><polygon points="531.8,535.1 537.8,533.3 537.8,518.2 531.8,520.0" fill="#874412"/><polygon points="504.5,516.3 510.5,514.5 510.5,499.4 504.5,501.2" fill="#874412"/><polygon points="518.1,512.2 524.1,510.4 524.1,495.3 518.1,497.1" fill="#874412"/><polygon points="531.8,508.1 537.8,506.3 537.8,491.2 531.8,493.0" fill="#874412"/><polygon points="504.5,489.3 510.5,487.5 510.5,472.4 504.5,474.2" fill="#874412"/><polygon points="518.1,485.2 524.1,483.4 524.1,468.3 518.1,470.1" fill="#874412"/><polygon points="531.8,481.1 537.8,479.3 537.8,464.2 531.8,466.0" fill="#874412"/><polygon points="504.5,462.3 510.5,460.5 510.5,445.4 504.5,447.2" fill="#874412"/><polygon points="518.1,458.2 524.1,456.4 524.1,441.3 518.1,443.1" fill="#874412"/><polygon points="531.8,454.1 537.8,452.3 537.8,437.2 531.8,439.0" fill="#874412"/><polygon points="570.2,880.4 576.2,878.6 576.2,863.1 570.2,864.9" fill="#874412"/><polygon points="583.9,876.3 589.9,874.5 589.9,859.0 583.9,860.8" fill="#874412"/><polygon points="597.5,872.2 603.5,870.4 603.5,854.9 597.5,856.7" fill="#874412"/><polygon points="570.2,852.6 576.2,850.8 576.2,835.3 570.2,837.1" fill="#874412"/><polygon points="583.9,848.6 589.9,846.8 589.9,831.2 583.9,833.0" fill="#874412"/><polygon points="597.5,844.5 603.5,842.7 603.5,827.1 597.5,828.9" fill="#874412"/><polygon points="570.2,824.9 576.2,823.1 576.2,807.5 570.2,809.3" fill="#874412"/><polygon points="583.9,820.8 589.9,819.0 589.9,803.4 583.9,805.2" fill="#874412"/><polygon points="597.5,816.7 603.5,814.9 603.5,799.3 597.5,801.1" fill="#874412"/><polygon points="570.2,797.1 576.2,795.3 576.2,779.7 570.2,781.5" fill="#874412"/><polygon points="583.9,793.0 589.9,791.2 589.9,775.6 583.9,777.4" fill="#874412"/><polygon points="597.5,788.9 603.5,787.1 603.5,771.5 597.5,773.4" fill="#874412"/><polygon points="570.2,769.3 576.2,767.5 576.2,752.0 570.2,753.8" fill="#874412"/><polygon points="583.9,765.2 589.9,763.4 589.9,747.9 583.9,749.7" fill="#874412"/><polygon points="597.5,761.1 603.5,759.3 603.5,743.8 597.5,745.6" fill="#874412"/><polygon points="570.2,741.5 576.2,739.7 576.2,724.2 570.2,726.0" fill="#874412"/><polygon points="583.9,737.4 589.9,735.6 589.9,720.1 583.9,721.9" fill="#874412"/><polygon points="597.5,733.4 603.5,731.5 603.5,716.0 597.5,717.8" fill="#874412"/><polygon points="570.2,713.8 576.2,712.0 576.2,696.4 570.2,698.2" fill="#874412"/><polygon points="583.9,709.7 589.9,707.9 589.9,692.3 583.9,694.1" fill="#874412"/><polygon points="597.5,705.6 603.5,703.8 603.5,688.2 597.5,690.0" fill="#874412"/><polygon points="570.2,686.0 576.2,684.2 576.2,668.6 570.2,670.4" fill="#874412"/><polygon points="583.9,681.9 589.9,680.1 589.9,664.5 583.9,666.3" fill="#874412"/><polygon points="597.5,677.8 603.5,676.0 603.5,660.4 597.5,662.2" fill="#874412"/><polygon points="570.2,658.2 576.2,656.4 576.2,640.8 570.2,642.6" fill="#874412"/><polygon points="583.9,654.1 589.9,652.3 589.9,636.8 583.9,638.6" fill="#874412"/><polygon points="597.5,650.0 603.5,648.2 603.5,632.7 597.5,634.5" fill="#874412"/><polygon points="570.2,550.6 576.2,548.8 576.2,533.7 570.2,535.5" fill="#874412"/><polygon points="583.9,546.5 589.9,544.7 589.9,529.6 583.9,531.4" fill="#874412"/><polygon points="597.5,542.4 603.5,540.6 603.5,525.5 597.5,527.3" fill="#874412"/><polygon points="570.2,523.6 576.2,521.8 576.2,506.7 570.2,508.5" fill="#874412"/><polygon points="583.9,519.5 589.9,517.7 589.9,502.6 583.9,504.4" fill="#874412"/><polygon points="597.5,515.4 603.5,513.6 603.5,498.5 597.5,500.3" fill="#874412"/><polygon points="570.2,496.6 576.2,494.8 576.2,479.7 570.2,481.5" fill="#874412"/><polygon points="583.9,492.5 589.9,490.7 589.9,475.6 583.9,477.4" fill="#874412"/><polygon points="597.5,488.4 603.5,486.6 603.5,471.5 597.5,473.3" fill="#874412"/><polygon points="570.2,469.6 576.2,467.8 576.2,452.7 570.2,454.5" fill="#874412"/><polygon points="583.9,465.5 589.9,463.7 589.9,448.6 583.9,450.4" fill="#874412"/><polygon points="597.5,461.4 603.5,459.6 603.5,444.5 597.5,446.3" fill="#874412"/><polygon points="570.2,442.6 576.2,440.8 576.2,425.7 570.2,427.5" fill="#874412"/><polygon points="583.9,438.5 589.9,436.7 589.9,421.6 583.9,423.4" fill="#874412"/><polygon points="597.5,434.4 603.5,432.6 603.5,417.5 597.5,419.3" fill="#874412"/><polygon points="545.3,914.0 562.7,908.8 562.7,408.8 545.3,414.0" fill="url(#g19)"/><polygon points="492.0,640.0 616.0,602.8 616.0,562.8 492.0,600.0" fill="url(#g19)"/><polygon points="541.6,915.1 566.4,907.7 566.4,882.7 541.6,890.1" fill="#2d4673"/><polygon points="474.0,350.2 350.0,387.4 447.5,287.4" fill="#ffe0ad"/><polygon points="474.0,350.2 545.0,371.5 447.5,287.4" fill="#ffaf5b"/><polygon points="350.0,387.4 421.0,408.7 447.5,287.4" fill="#ffce8b"/><polygon points="421.0,408.7 545.0,371.5 447.5,287.4" fill="#df8939"/><polygon points="401.0,370.4 407.4,372.3 418.1,349.7 413.4,348.3" fill="#5fb7ff"/><polygon points="545.0,371.5 421.0,408.7 518.5,308.8" fill="#ffe0ad"/><polygon points="545.0,371.5 616.0,392.8 518.5,308.8" fill="#ffaf5b"/><polygon points="421.0,408.7 492.0,430.0 518.5,308.8" fill="#ffce8b"/><polygon points="492.0,430.0 616.0,392.8 518.5,308.8" fill="#df8939"/><polygon points="472.0,391.7 478.4,393.6 489.1,371.0 484.4,369.6" fill="#5fb7ff"/><polygon points="415.3,407.0 426.7,410.4 550.7,373.2 539.3,369.8" fill="#5fb7ff"/><polygon points="51.0,860.0 69.0,860.0 67.0,1044.0 53.0,1044.0" fill="url(#g20)"/><polygon points="181.0,892.0 199.0,892.0 197.0,1044.0 183.0,1044.0" fill="url(#g20)"/><polygon points="291.0,948.0 309.0,948.0 307.0,1044.0 293.0,1044.0" fill="url(#g20)"/><path d="M-40,846 C140,868 300,930 420,1060" fill="none" stroke="#90887c" stroke-width="30" transform="translate(0,6)"/><path d="M-40,846 C140,868 300,930 420,1060" fill="none" stroke="#f6efe2" stroke-width="24"/><path d="M-40,822 C60,832 150,852 236,884" fill="none" stroke="#657286" stroke-width="46" stroke-linecap="round" transform="translate(0,4)"/><path d="M-40,822 C60,832 150,852 236,884" fill="none" stroke="url(#g21)" stroke-width="40" stroke-linecap="round"/><path d="M-40,822 C60,832 150,852 236,884" fill="none" stroke="#1d58b7" stroke-width="10" stroke-dasharray="26 8" transform="translate(0,-4)"/><path d="M-40,822 C60,832 150,852 236,884" fill="none" stroke="#ff1f0f" stroke-width="3" transform="translate(0,9)"/><path d="M600.0,1062.0 L1050.0,830.0" fill="none" stroke="#861406" stroke-width="16"/><path d="M600.0,1055.0 L1050.0,823.0" fill="none" stroke="#f3ddc2" stroke-width="6"/><path d="M771.0,833.84 Q865.5,905.12 960.0,732.4" fill="none" stroke="#ff1d07" stroke-width="6"/><path d="M600,1050 Q695.5,1005.9200000000001 771.0,833.84" fill="none" stroke="#ff1d07" stroke-width="6"/><path d="M960.0,732.4 Q1005.0,813.2 1050,770" fill="none" stroke="#ff1d07" stroke-width="6"/><path d="M802.4,857.0 L794.6,954.7" fill="none" stroke="#ff1d07" stroke-width="1.6"/><path d="M827.1,872.4 L818.2,942.5" fill="none" stroke="#ff1d07" stroke-width="1.6"/><path d="M847.4,878.6 L841.9,930.3" fill="none" stroke="#ff1d07" stroke-width="1.6"/><path d="M865.5,874.6 L865.5,918.1" fill="none" stroke="#ff1d07" stroke-width="1.6"/><path d="M883.6,859.2 L889.1,905.9" fill="none" stroke="#ff1d07" stroke-width="1.6"/><path d="M903.9,831.1 L912.8,893.8" fill="none" stroke="#ff1d07" stroke-width="1.6"/><path d="M928.6,789.3 L936.4,881.6" fill="none" stroke="#ff1d07" stroke-width="1.6"/><polygon points="758.0,1003.8 766.0,1003.8 766.0,833.8 760.0,833.8" fill="#ff1d07"/><polygon points="776.0,999.8 784.0,999.8 782.0,829.8 776.0,829.8" fill="#ae0c00"/><polygon points="760.0,843.8 782.0,839.8 782.0,849.8 760.0,853.8" fill="#ff1d07"/><polygon points="760.0,895.8 782.0,891.8 782.0,901.8 760.0,905.8" fill="#ff1d07"/><polygon points="760.0,947.8 782.0,943.8 782.0,953.8 760.0,957.8" fill="#ff1d07"/><polygon points="947.0,906.4 955.0,906.4 955.0,736.4 949.0,736.4" fill="#ff1d07"/><polygon points="965.0,902.4 973.0,902.4 971.0,732.4 965.0,732.4" fill="#ae0c00"/><polygon points="949.0,746.4 971.0,742.4 971.0,752.4 949.0,756.4" fill="#ff1d07"/><polygon points="949.0,798.4 971.0,794.4 971.0,804.4 949.0,808.4" fill="#ff1d07"/><polygon points="949.0,850.4 971.0,846.4 971.0,856.4 949.0,860.4" fill="#ff1d07"/></g></svg>
